<svg width="302" height="534" viewBox="0 0 302 534" fill="none" xmlns="http://www.w3.org/2000/svg">
<path d="M220.753 23.1614L175.548 57.8612L143.759 6.88246L105.062 12.8473L64.1193 52.2365L21.2101 9.77759L0.513076 31.0133L0.155308 52.7309L51.5596 116.577L78.0097 114.64L120.796 70.3596L159.738 112.295L188.309 116.854L230.795 70.1929L295.165 85.7111L300.172 46.2621L296.905 31.8383L220.753 23.1614Z" fill="#E6DFDB" fill-opacity="0.5"/>
<path d="M178.163 43.7228L153.146 3.63251L212.303 17.5155L178.163 43.7228Z" fill="#E6DFDB" fill-opacity="0.5"/>
<path d="M89.0754 117.101L120.651 84.3967L148.523 114.405L89.0754 117.101Z" fill="#C4D8B3" fill-opacity="0.5"/>
<path d="M206.477 189.425L102.018 193.824L153.431 243.498L189.749 206.478L225.325 237.667L267.177 188.787L202.837 193.148L206.477 189.425Z" fill="#E6DFDB" fill-opacity="0.5"/>
<path d="M299.196 129.903L56.6697 127.748L36.2519 132.864L0.0865432 214.052L41.071 249.582L69.8238 170.649L157.826 178.083L157.97 178.083L158.143 178.084L276.377 174.556L277.674 174.505L278.569 173.588L299.314 152.677L300.238 151.759L300.183 150.515L299.196 129.903Z" fill="#E6DFDB" fill-opacity="0.5"/>
<path d="M190.293 220.003C189.396 221.434 160.764 250.224 160.764 250.224L218.68 244.9L190.293 220.003Z" fill="#C1D0DB" fill-opacity="0.5"/>
<path d="M262.652 318.884L262.046 332.054L246.276 349.11L181.107 342.84L221.639 376.719L218.815 393.454L206.884 401.539L162.855 365.379L162.448 379.334L164.694 423.994L147.504 434.365L131.946 435.058L134.176 379.293L133.837 365.336L89.6049 401.282L77.7419 393.058L74.9693 376.391L115.665 342.654L50.8114 348.637L35.095 331.506L34.5528 318.333L113.982 314.684L84.2178 278.884L87.695 265.288L109.721 260.824L148.484 302.326L187.763 261.013L209.738 265.529L213.178 279.195L182.926 314.851L262.652 318.884Z" fill="#E6DFDB" fill-opacity="0.5"/>
<path d="M29.1905 529.499L149.088 514.968L295.185 527.005L300.129 476.332L149.174 479.456L47.6369 485.918L46.8213 431.498L148.074 447.619L295.664 423.824L296.264 400.998L281.47 382.462L148.169 408.51L20.7648 381.751L0.554077 407.126L0.0714628 499.867L29.1905 529.499Z" fill="#E6DFDB" fill-opacity="0.5"/>
<path d="M57.0977 442.801L57.592 475.745L134.441 470.846L57.0977 442.801Z" fill="#F1C9A8" fill-opacity="0.5"/>
</svg>
