<svg width="34" height="34" viewBox="0 0 34 34" fill="none" xmlns="http://www.w3.org/2000/svg">
<path d="M17 1C25.8366 1 33 8.16344 33 17C33 25.8366 25.8366 33 17 33C8.16344 33 1 25.8366 1 17C1 8.16344 8.16344 1 17 1Z" stroke="#392015" stroke-width="2"/>
<path fill-rule="evenodd" clip-rule="evenodd" d="M16.9998 8.04163C14.8251 8.04163 13.0623 10.0004 13.0623 12.4166C13.0623 14.8329 14.8251 16.7916 16.9998 16.7916C19.1744 16.7916 20.9373 14.8329 20.9373 12.4166C20.9373 10.0004 19.1744 8.04163 16.9998 8.04163ZM14.1873 12.4166C14.1873 10.6907 15.4465 9.29163 16.9998 9.29163C18.5531 9.29163 19.8123 10.6907 19.8123 12.4166C19.8123 14.1425 18.5531 15.5416 16.9998 15.5416C15.4465 15.5416 14.1873 14.1425 14.1873 12.4166Z" fill="black"/>
<path fill-rule="evenodd" clip-rule="evenodd" d="M21.6714 19.566C21.5494 19.4895 21.4417 19.422 21.3545 19.3643C18.689 17.6007 15.3108 17.6007 12.6453 19.3643C12.5581 19.422 12.4503 19.4895 12.3283 19.566C11.7937 19.9011 10.9856 20.4077 10.4319 21.0098C10.0857 21.3864 9.75669 21.8826 9.69688 22.4906C9.63327 23.1371 9.88712 23.7439 10.3964 24.2829C11.275 25.213 12.3293 25.9583 13.693 25.9583H20.3067C21.6705 25.9583 22.7248 25.213 23.6034 24.2829C24.1127 23.7439 24.3665 23.1371 24.3029 22.4906C24.2431 21.8826 23.9141 21.3864 23.5678 21.0098C23.0142 20.4077 22.206 19.9011 21.6714 19.566ZM13.2209 20.4383C15.5317 18.9094 18.468 18.9094 20.7789 20.4383C20.9048 20.5216 21.0428 20.6086 21.1873 20.6997C21.7218 21.0366 22.3458 21.4299 22.7809 21.9031C23.051 22.1969 23.1661 22.4392 23.1846 22.6264C23.1992 22.7751 23.1654 23.0202 22.8274 23.3779C22.0505 24.2003 21.2611 24.7083 20.3067 24.7083H13.693C12.7387 24.7083 11.9493 24.2003 11.1724 23.3779C10.8344 23.0202 10.8006 22.7751 10.8152 22.6264C10.8336 22.4392 10.9488 22.1969 11.2189 21.9031C11.6539 21.4299 12.2779 21.0366 12.8124 20.6997C12.9569 20.6086 13.095 20.5216 13.2209 20.4383Z" fill="black"/>
</svg>
