<svg width="60" height="76" viewBox="0 0 60 76" fill="none" xmlns="http://www.w3.org/2000/svg">
<path d="M59.9792 49.1503L59.033 55.2764L59.4127 61.4095L59.4216 61.5493L59.3949 61.6915L58.3596 67.7809L59.0241 73.593L59.2377 75.4249L56.8616 75.3171L49.6475 74.987L42.1041 75.8146L41.8312 75.8421L41.5613 75.8192L34.0446 75.0947L30.0015 75.4157L25.9554 75.0947L18.4417 75.8192L18.1718 75.8421L17.8959 75.8146L10.3555 74.987L3.14135 75.3171L0.765319 75.4249L0.975917 73.593L1.64334 67.7809L0.608094 61.6915L0.581408 61.5493L0.590297 61.4095L0.967027 55.2764L0.0237357 49.1503L0 48.999L0.014828 48.8499L0.5725 42.6848L0.130519 36.0588L0.121612 35.9144L0.145347 35.7723L1.25475 29.1646L0.207647 22.1283L0.183911 21.9655L0.201708 21.8027L1.01151 15.0896L0.480544 8.9497L0.468686 8.78692L0.498342 8.62414L1.50393 3.06887L1.71455 1.89271L3.23626 1.71617L10.133 0.922888L10.4385 0.888497L10.7411 0.927473L18.1243 1.78495L25.5134 0.617956L25.7626 0.578979L26.0177 0.585858L30.0015 0.725714L33.9823 0.585858L34.2404 0.578979L34.4866 0.617956L41.8757 1.78495L49.2589 0.927473L49.5615 0.888497L49.867 0.922888L56.7667 1.71617L58.2854 1.89271L58.499 3.06887L59.5017 8.62414L59.5343 8.78692L59.5195 8.9497L58.9885 15.0896L59.7983 21.8027L59.8161 21.9655L59.7953 22.1283L58.7452 29.1646L59.8576 35.7723L59.8784 35.9144L59.8695 36.0588L59.4305 42.6848L59.9881 48.8499L60 48.999L59.9792 49.1503Z" fill="#392015"/>
<path d="M41.0411 41.7725L33.9783 46.0943L28.983 39.7755L22.9287 40.5252L16.5363 45.4271L9.8027 40.1722L6.57237 42.8157L6.5249 45.5096L14.5963 53.4195L18.7343 53.1696L25.4145 47.6602L31.5252 52.8532L36.0013 53.4126L42.6311 47.6052L52.7137 49.515L53.479 44.6154L52.9658 42.8271L41.0411 41.7725Z" fill="#C6B29C"/>
<path d="M34.384 44.3378L30.4536 39.3672L39.7175 41.073L34.384 44.3378Z" fill="#DB3B27"/>
<path d="M20.4658 53.4708L25.3959 49.4058L29.7682 53.12L20.4658 53.4708Z" fill="#54B548"/>
<path d="M38.4872 63.66L22.7449 64.2378L30.5137 70.3891L35.9747 65.7808L41.3438 69.644L47.6324 63.5637L37.9384 64.1231L38.4872 63.66Z" fill="#C6B29C"/>
<path d="M52.439 56.2465L15.8909 56.0516L12.8118 56.6913L7.39233 66.7816L13.5831 71.179L17.8872 61.3707L31.1527 62.2672L31.1764 62.2695L31.1971 62.2672L49.0159 61.7949L49.2146 61.788L49.3481 61.6757L52.4658 59.0711L52.6022 58.9565L52.5933 58.8029L52.439 56.2465Z" fill="#C6B29C"/>
<path d="M36.0632 67.4595C35.9297 67.6383 31.6226 71.2195 31.6226 71.2195L40.3466 70.5409L36.0632 67.4595Z" fill="#4999D3"/>
<path d="M46.9689 12.3622L46.8829 13.9946L44.5009 16.1177L34.6378 15.3588L40.787 19.5522L40.3629 21.6294L38.5623 22.6382L31.8851 18.1628L31.8287 19.8938L32.1847 25.4376L29.5891 26.7307L27.2309 26.8224L27.5483 19.8984L27.4919 18.1674L20.8147 22.6428L19.0142 21.6248L18.59 19.5545L24.7362 15.3565L14.9236 16.1177L12.5387 13.9946L12.4526 12.3622L24.4722 11.8853L19.9515 7.45119L20.4766 5.76145L23.8048 5.20203L29.687 10.34L35.6167 5.20203L38.9449 5.75457L39.47 7.45119L34.9048 11.8853L46.9689 12.3622Z" fill="#C6B29C"/>
<path d="M11.7142 38.573L29.8534 36.7319L51.9674 38.1832L52.6971 31.892L29.8534 32.323L14.4907 33.1576L14.3483 26.4009L29.6754 28.3727L52.003 25.3761L52.0801 22.5423L49.8375 20.245L29.6754 23.519L10.3883 20.2335L7.33593 23.3929L7.29736 34.9024L11.7142 38.573Z" fill="#C6B29C"/>
<path d="M15.9092 27.803L15.9952 31.8932L27.6203 31.2604L15.9092 27.803Z" fill="#EE8022"/>
</svg>
