<svg width="128" height="40" viewBox="0 0 128 40" fill="none" xmlns="http://www.w3.org/2000/svg">
<path d="M4.59541 35.3233V34.1182C4.59541 33.0081 3.86329 32.4208 2.47771 32.4208C1.83484 32.4208 1.15869 32.5438 0.862207 32.6267L0.697329 32.673L0.158828 33.8854L0.872795 33.688C1.18591 33.6015 2.05871 33.504 2.75755 33.504C3.01016 33.504 3.15991 33.5138 3.18865 33.5211C3.23857 33.5869 3.23857 33.9086 3.23857 34.145V34.4691H1.9377C0.742708 34.4691 0 35.2721 0 36.1116C0 36.9183 0.673126 37.4191 1.75769 37.4191C2.33098 37.4191 2.85587 37.2619 3.2658 36.9841C3.26882 37.0194 3.27034 37.0548 3.27336 37.0889L3.29303 37.3643H4.88281L4.7618 36.9975C4.6181 36.5576 4.59541 36.1433 4.59541 35.3233ZM1.35684 35.5523C1.46424 35.5438 1.65181 35.5438 1.83635 35.5438H3.1221C3.01319 36.1531 2.56242 36.3627 1.8908 36.3627C1.49298 36.3627 1.35382 36.0592 1.35382 35.6218C1.35533 35.5926 1.35533 35.5694 1.35684 35.5523Z" fill="#35211F"/>
<path d="M71.8884 35.3233V34.1182C71.8884 33.0081 71.1563 32.4208 69.7707 32.4208C69.1278 32.4208 68.4517 32.5438 68.1552 32.6267L67.9903 32.673L67.4518 33.8854L68.1658 33.688C68.4789 33.6015 69.3517 33.504 70.0505 33.504C70.3031 33.504 70.4529 33.5138 70.4816 33.5211C70.5315 33.5869 70.5315 33.9086 70.5315 34.145V34.4691H69.2307C68.0357 34.4691 67.293 35.2721 67.293 36.1116C67.293 36.9183 67.9661 37.4191 69.0507 37.4191C69.624 37.4191 70.1488 37.2619 70.5588 36.9841C70.5618 37.0194 70.5633 37.0548 70.5663 37.0889L70.586 37.3643H72.1758L72.0548 36.9975C71.9126 36.5576 71.8884 36.1433 71.8884 35.3233ZM68.6513 35.5523C68.7587 35.5438 68.9463 35.5438 69.1308 35.5438H70.4166C70.3077 36.1531 69.8569 36.3627 69.1853 36.3627C68.7875 36.3627 68.6483 36.0592 68.6483 35.6218C68.6498 35.5926 68.6498 35.5694 68.6513 35.5523Z" fill="#35211F"/>
<path d="M8.4104 34.2362C7.6571 34.0206 7.35004 33.8987 7.35004 33.5575C7.35004 33.5466 7.35004 33.538 7.35004 33.5295C7.43021 33.5246 7.55575 33.5246 7.63895 33.5246C8.40284 33.5246 8.94587 33.6526 9.14706 33.7793L9.58421 34.0559L9.98052 32.8179L9.69463 32.7192C9.439 32.6302 8.83848 32.4231 8.07762 32.4231C6.74649 32.4231 5.98261 32.8995 5.98261 33.7306C5.98261 34.6213 6.90229 34.9186 7.64198 35.1574C8.42704 35.4109 8.90655 35.5937 8.90655 36.1225C8.90655 36.2261 8.88991 36.2517 8.89142 36.2517C8.88234 36.259 8.78553 36.3187 8.22434 36.3187C7.58147 36.3187 7.0112 36.2261 6.57556 36.0506L6.17169 35.8885L5.82227 36.9986L6.07488 37.1058C6.3169 37.2082 7.09894 37.4202 7.97627 37.4202C9.42236 37.4202 10.2861 36.8499 10.2861 35.8958C10.2861 34.7724 9.20151 34.4617 8.4104 34.2362Z" fill="#35211F"/>
<path d="M14.0401 36.309C13.2142 36.309 12.5486 36.1628 12.4564 35.3549C12.4564 35.3549 15.6919 35.5304 15.5845 33.738C15.5331 32.8838 14.6331 32.4208 13.7361 32.4208C12.4972 32.4208 11.1797 33.2981 11.1797 34.9248C11.1797 36.4638 12.2461 37.4191 13.9614 37.4191C14.7873 37.4191 15.3153 37.201 15.5573 37.0706L15.6889 36.9999L15.9733 35.5987L15.2759 35.9776C14.8282 36.2225 14.5045 36.309 14.0401 36.309ZM13.3518 33.4358C13.6952 33.3968 14.3093 33.4516 14.4682 34.1206L12.5017 34.2705C12.4352 33.9415 12.8527 33.4931 13.3518 33.4358Z" fill="#35211F"/>
<path d="M25.2978 32.4208C24.8561 32.4208 24.4643 32.5097 24.1315 32.6815V32.4756H22.5039L22.6174 32.8399C22.7505 33.2664 22.7747 33.7965 22.7747 34.6263V35.2063C22.7747 35.9752 22.7565 36.5491 22.6658 37.0292L22.6022 37.3655H24.3206L24.248 37.0243C24.1497 36.5552 24.13 36.002 24.13 35.2063V34.1377C24.1935 33.7307 24.3524 33.5235 25.0043 33.5235C25.2282 33.5235 25.4808 33.5491 25.7576 33.5979L26.1267 33.6637L26.3067 32.8619L26.3279 32.712L26.219 32.6084C26.1721 32.5621 26.0238 32.4208 25.2978 32.4208Z" fill="#35211F"/>
<path d="M35.445 35.2062V34.6262C35.445 32.8045 34.4467 32.4219 33.6087 32.4219C32.984 32.4219 32.509 32.6412 32.2186 33.0592C31.8404 32.5486 31.2656 32.4219 30.7861 32.4219C30.3369 32.4219 30.0192 32.5328 29.7878 32.6863V32.4755H28.1602L28.2736 32.8386C28.4067 33.2663 28.4309 33.7964 28.4309 34.6249V35.2049C28.4309 35.9726 28.4128 36.5453 28.322 37.0278L28.2585 37.3641H29.9768L29.9042 37.023C29.8044 36.5526 29.7862 36.0006 29.7862 35.2049V34.8065C29.7862 33.9072 29.9057 33.5319 30.6485 33.5319C31.1053 33.5319 31.2641 33.5941 31.2641 34.8065V35.2049C31.2641 35.9994 31.2444 36.5526 31.1461 37.023L31.0735 37.3641H32.7919L32.7283 37.0278C32.6376 36.5465 32.6194 35.9726 32.6194 35.2049V34.8065C32.6194 33.9072 32.7374 33.5319 33.471 33.5319C33.9385 33.5319 34.0867 33.5904 34.0867 34.8065V35.2049C34.0867 35.9726 34.0685 36.5453 33.9778 37.0278L33.9143 37.3641H35.6326L35.56 37.023C35.4647 36.5526 35.445 36.0006 35.445 35.2062Z" fill="#35211F"/>
<path d="M41.7344 35.2331V34.608C41.7344 33.8428 41.754 33.2774 41.8523 32.818L41.9265 32.4756H40.2051L40.2701 32.8131C40.3594 33.2835 40.379 33.8708 40.379 34.608V35.0515C40.379 36.1591 40.0205 36.3541 39.2687 36.3541C38.6334 36.3541 38.4277 36.2639 38.4277 35.188V34.608C38.4277 33.8428 38.4474 33.2774 38.5457 32.818L38.6198 32.4756H36.8984L36.9635 32.8131C37.0527 33.2835 37.0724 33.8708 37.0724 34.608V35.3695C37.0724 37.0645 38.1207 37.4203 38.9995 37.4203C39.5501 37.4203 40.0115 37.2875 40.379 37.0243V37.3655H42.0233L41.9023 36.9987C41.7601 36.5649 41.7344 36.0641 41.7344 35.2331Z" fill="#35211F"/>
<path d="M48.0783 35.233V34.6079C48.0783 32.6339 46.6988 32.4219 46.1058 32.4219C45.5825 32.4219 45.1347 32.5547 44.7702 32.8191V32.4767H43.1426L43.256 32.8398C43.3891 33.27 43.4133 33.772 43.4133 34.6079V35.233C43.4133 35.9848 43.3952 36.5477 43.3044 37.0291L43.2409 37.3654H44.9593L44.8867 37.0242C44.7883 36.5563 44.7687 35.9921 44.7687 35.2342V34.7907C44.7687 33.683 45.1045 33.4881 45.8109 33.4881C46.5143 33.4881 46.7185 33.6587 46.7185 34.7907V35.2342C46.7185 35.986 46.7003 36.549 46.6096 37.0303L46.546 37.3666H48.2644L48.1918 37.0254C48.098 36.5551 48.0783 35.9909 48.0783 35.233Z" fill="#35211F"/>
<path d="M51.1446 32.8131L51.2097 32.4756H49.4883L49.5624 32.818C49.6607 33.2761 49.6804 33.8501 49.6804 34.625V35.205C49.6804 35.9995 49.6607 36.5527 49.5624 37.0231L49.4898 37.3642H51.2082L51.1446 37.0279C51.0539 36.5466 51.0357 35.9739 51.0357 35.205V34.625C51.0357 33.8562 51.0539 33.2847 51.1446 32.8131Z" fill="#35211F"/>
<path d="M50.3451 30.7354C49.8626 30.7354 49.498 31.0363 49.498 31.436C49.498 31.8296 49.8626 32.1269 50.3451 32.1269C50.8488 32.1269 51.2149 31.8357 51.2149 31.436C51.2149 31.0302 50.8488 30.7354 50.3451 30.7354Z" fill="#35211F"/>
<path d="M55.3293 36.309C53.7017 36.309 53.7017 34.9407 53.7017 34.4898C53.7017 33.6588 53.8499 33.5223 54.756 33.5223C55.2552 33.5223 55.7559 33.593 56.2248 33.671L56.5742 33.7282L56.8646 32.6815L56.5818 32.5877C56.3307 32.5049 55.7982 32.4208 55.2628 32.4208C53.4718 32.4208 52.4023 33.3529 52.4023 34.9151C52.4023 36.4821 53.4082 37.4191 55.0948 37.4191C56.0009 37.4191 56.5364 37.1486 56.6801 37.0645L56.8011 36.9938L57.0915 35.6121L56.3882 35.9947C55.9979 36.2079 55.7907 36.309 55.3293 36.309Z" fill="#35211F"/>
<path d="M58.9838 30.7354C58.5013 30.7354 58.1367 31.0363 58.1367 31.436C58.1367 31.8296 58.5013 32.1269 58.9838 32.1269C59.4875 32.1269 59.8536 31.8357 59.8536 31.436C59.8536 31.0302 59.4875 30.7354 58.9838 30.7354Z" fill="#35211F"/>
<path d="M59.7833 32.8131L59.8483 32.4756H58.127L58.2011 32.818C58.2994 33.2774 58.3191 33.8501 58.3191 34.625V35.205C58.3191 35.9995 58.2994 36.5515 58.2011 37.0231L58.1285 37.3642H59.8468L59.7833 37.0279C59.6925 36.5466 59.6744 35.9739 59.6744 35.205V34.625C59.6744 33.8562 59.6925 33.2847 59.7833 32.8131Z" fill="#35211F"/>
<path d="M63.7755 32.4208C63.3443 32.4208 62.9556 32.5049 62.6198 32.6681V32.4756H60.9922L61.1056 32.8387C61.2387 33.2664 61.2629 33.7965 61.2629 34.6251V36.5003C61.2629 37.1681 61.2493 37.9211 61.154 38.4317L61.0905 38.768H62.8089L62.7363 38.4268C62.6742 38.1295 62.644 37.7542 62.6289 37.2741C62.9359 37.3679 63.2748 37.4179 63.6151 37.4179C64.9054 37.4179 66.2849 36.7599 66.2849 34.9138C66.2864 33.0751 64.9341 32.4208 63.7755 32.4208ZM63.9555 36.3627C63.3746 36.3627 62.6803 36.2103 62.6198 35.7802V34.318C62.6198 33.7087 62.8376 33.5235 63.5501 33.5235C64.2066 33.5235 64.9084 33.6539 64.9084 35.216C64.9084 36.264 64.6467 36.3627 63.9555 36.3627Z" fill="#35211F"/>
<path d="M74.9891 30.7792L75.0632 30.4368H73.3418L73.4068 30.7743C73.4976 31.2471 73.5158 31.8186 73.5158 32.5874V35.206C73.5158 35.9737 73.4976 36.5464 73.4068 37.0289L73.3433 37.3652H75.0617L74.9891 37.024C74.8892 36.5537 74.8711 36.0017 74.8711 35.206V32.5874C74.8711 31.8112 74.8907 31.2385 74.9891 30.7792Z" fill="#35211F"/>
<path d="M77.1381 30.7354C76.6556 30.7354 76.291 31.0363 76.291 31.436C76.291 31.8296 76.6556 32.1269 77.1381 32.1269C77.6418 32.1269 78.0079 31.8357 78.0079 31.436C78.0064 31.0302 77.6418 30.7354 77.1381 30.7354Z" fill="#35211F"/>
<path d="M77.9356 32.8131L78.0007 32.4756H76.2793L76.3534 32.818C76.4517 33.2774 76.4714 33.8501 76.4714 34.625V35.205C76.4714 35.9995 76.4517 36.5515 76.3534 37.0231L76.2808 37.3642H77.9992L77.9356 37.0279C77.8449 36.5466 77.8267 35.9739 77.8267 35.205V34.625C77.8267 33.8562 77.8449 33.2847 77.9356 32.8131Z" fill="#35211F"/>
<path d="M81.9855 36.3173C81.4198 36.3173 81.3926 36.2808 81.3926 35.5229V33.8828C81.3926 33.8011 81.391 33.7268 81.388 33.6561C81.3865 33.6025 81.385 33.5513 81.385 33.5038C81.4818 33.5026 81.5786 33.5014 81.6769 33.5014C82.0566 33.4965 82.4499 33.4928 82.9067 33.505L83.2395 33.5135L83.3968 32.4754H81.4168C81.4228 32.2439 81.4394 31.8174 81.4788 31.5639L81.5468 31.1387L79.9828 31.453L80.0145 32.4754H79.2582L78.998 33.505H80.0357V35.713C80.0357 37.1228 81.0598 37.4189 81.9174 37.4189C82.5059 37.4189 82.9113 37.2995 83.0852 37.2495C83.1064 37.2434 83.123 37.2385 83.1351 37.2349L83.3439 37.1849L83.7825 35.4766L82.9294 36.1614C82.8644 36.2028 82.5149 36.3173 81.9855 36.3173Z" fill="#35211F"/>
<path d="M88.1429 32.4756L88.0779 32.7022C87.9463 33.164 87.7587 33.6892 87.4652 34.4983L87.0462 35.6596L86.5879 34.4813C86.4775 34.1693 86.3686 33.8976 86.2733 33.6527C86.125 33.2786 86.0086 32.9825 85.9435 32.712L85.8876 32.4744H84.0996L84.3628 32.8984C84.5927 33.2676 84.7864 33.7087 85.0556 34.3204L86.355 37.1802C86.1598 37.5324 85.9828 37.8041 85.8376 38.0271C85.7605 38.1465 85.6909 38.2525 85.6319 38.35L85.3793 38.7704H86.9373L87.0281 38.5852C87.1098 38.417 87.1869 38.2379 87.2913 37.9918C87.3775 37.7883 87.4834 37.5397 87.6271 37.2205L88.7525 34.7542C88.8614 34.5117 88.9567 34.2924 89.0429 34.0913C89.2668 33.5722 89.4302 33.1957 89.6208 32.9069L89.9051 32.4768H88.1429V32.4756Z" fill="#35211F"/>
<path d="M19.6397 36.309C18.8138 36.309 18.1482 36.1628 18.056 35.3549C18.056 35.3549 21.2915 35.5304 21.1841 33.738C21.1327 32.8838 20.2327 32.4208 19.3357 32.4208C18.0968 32.4208 16.7793 33.2981 16.7793 34.9248C16.7793 36.4638 17.8457 37.4191 19.561 37.4191C20.387 37.4191 20.9149 37.201 21.1569 37.0706L21.2885 36.9999L21.5729 35.5987L20.8755 35.9776C20.4278 36.2225 20.1041 36.309 19.6397 36.309ZM18.9515 33.4358C19.2948 33.3968 19.909 33.4516 20.0678 34.1206L18.1013 34.2705C18.0348 33.9415 18.4523 33.4931 18.9515 33.4358Z" fill="#35211F"/>
<path d="M42.458 25.88C41.7727 25.88 38.3496 25.5949 38.3496 23.4442C38.3496 23.1274 38.752 22.9666 39.5431 22.9666C40.2843 22.9666 40.8349 23.1506 41.3688 23.3285C41.5655 23.3943 41.7561 23.4564 41.9527 23.5113L42.3596 23.6307L42.8891 21.9455L42.5396 21.8456C42.2416 21.7651 41.1994 21.5044 40.2949 21.5044C38.2029 21.5044 36.4089 22.8508 36.4089 23.9524C36.4089 24.6116 36.722 25.4389 37.2635 25.9337H34.2503C33.1461 25.9337 33.1461 25.7643 33.1461 25.311V21.5032L31.2069 21.9638V25.8191C31.2069 25.8532 31.2069 25.8922 31.2039 25.9178C31.1207 25.9337 30.8923 25.9337 30.6518 25.9337H30.0558C28.9516 25.9337 28.9516 25.7643 28.9516 25.311V22.6047L27.0123 23.0653V25.8191C27.0123 25.8532 27.0123 25.8922 27.0093 25.9178C26.9261 25.9337 26.6977 25.9337 26.4587 25.9337H25.8627C24.754 25.9337 24.754 25.7643 24.754 25.311V22.0296L22.8148 22.4902V25.8191C22.8148 25.8532 22.8148 25.8922 22.8117 25.9178C22.7285 25.9337 22.5001 25.9337 22.2611 25.9337H12.6679C11.5637 25.9337 11.5637 25.7643 11.5637 25.311V21.4971L9.62451 21.9577V25.8191C9.62451 25.8532 9.62451 25.8922 9.62148 25.9178C9.53829 25.9337 9.30988 25.9337 9.06937 25.9337H8.47036C6.67636 25.9337 6.05164 25.9556 5.43146 25.8788C5.37852 25.3 5.29078 24.3277 5.20607 23.839L4.88388 22.1307L2.82971 22.5389L3.12619 24.0767C3.31829 25.1611 3.55578 26.51 3.55578 28.1489C3.55578 28.7192 3.55578 29.0957 1.45321 29.0994H1.31404L0.708984 30.6712H0.967646C3.82957 30.6651 5.43146 29.811 5.49499 27.3983C5.83836 27.5933 6.32694 27.5969 6.32694 27.5969H8.7865C9.35677 27.5969 9.983 27.3544 10.3657 27.0023C10.8346 27.3971 11.5486 27.5969 12.494 27.5969H21.9798C22.55 27.5969 23.1778 27.3557 23.562 27.0023C24.0279 27.3971 24.7419 27.5969 25.6903 27.5969H26.1774C26.7461 27.5969 27.3724 27.3544 27.7566 27.0023C28.2255 27.3971 28.9395 27.5969 29.8849 27.5969H30.3719C30.9437 27.5969 31.5699 27.3557 31.9511 27.0023C32.42 27.3971 33.1355 27.5969 34.0824 27.5969H42.5532L42.9435 25.8776H42.458V25.88Z" fill="#35211F"/>
<path d="M8.95898 29.4559V30.6634L14.6253 30.6744L13.7238 28.8917L8.95898 29.4559Z" fill="#35211F"/>
<path d="M71.7142 23.7455L71.6779 23.369L69.6328 23.7833L69.6676 24.0647C69.8083 25.0408 69.8234 25.6744 69.8234 25.901C69.8234 25.9169 69.8234 25.9303 69.8234 25.9412C69.8219 25.9412 69.8219 25.9412 69.8204 25.9412H54.2961C53.5398 25.9412 53.3659 25.8145 53.3659 25.2637V22.014L53.1813 21.9202C52.7941 21.7203 51.9273 21.5071 50.6522 21.5071C47.3985 21.5071 46.2383 23.1667 46.2383 24.7191C46.2383 26.1179 47.3516 27.6057 49.4133 27.6057C50.5947 27.6057 51.2466 27.1537 51.7035 26.6553C52.1376 27.2207 52.8848 27.535 53.9316 27.5923V27.6057H68.9158C70.1925 27.6057 71.7626 26.4749 71.7626 25.555V25.4185C71.7672 25.0663 71.7747 24.3377 71.7142 23.7455ZM49.6826 23.096C50.3557 23.096 50.9729 23.146 51.3162 23.224V25.0079C51.3162 25.4782 50.4843 25.9059 49.5706 25.9059C48.3288 25.9059 48.0686 25.003 48.0686 24.2451C48.0671 23.1947 48.5103 23.096 49.6826 23.096Z" fill="#35211F"/>
<path d="M82.1818 21.6869C80.8855 21.6869 79.9068 23.0723 79.0431 24.2957C78.8358 24.5882 78.6362 24.8684 78.4546 25.1024C77.7619 25.9407 77.7256 25.9407 77.1054 25.9407C75.8302 25.9407 75.092 25.6276 75.092 24.0289V20.9022C75.092 18.9635 75.1162 18.3263 75.2252 17.31L75.2675 16.8799L72.8594 17.282L72.9153 17.583C73.0439 18.3238 73.0439 18.9733 73.0439 20.9022V24.1203C73.0439 26.3209 74.3569 27.5236 76.8437 27.6003L77.2748 27.6052L77.3988 27.5991L77.4018 27.5942C78.1748 27.554 78.7284 27.3396 79.2094 26.8936C80.5512 27.3591 82.2332 27.8416 82.8867 27.8416C84.3237 27.8416 85.7335 26.7181 85.7335 25.5739C85.7365 24.7636 83.7035 21.6869 82.1818 21.6869ZM83.8866 26.2831V26.2856C82.6416 26.2697 81.1623 25.7908 80.2865 25.4606C80.5194 25.0756 80.7902 24.6199 81.0866 24.091C81.3725 23.5853 81.5934 23.2649 81.722 23.1028C82.3966 23.4379 83.8866 25.4655 83.8866 26.2831Z" fill="#35211F"/>
<path d="M86.1152 15.32V16.4313L89.2464 15.8964V14.7412L86.1152 15.32Z" fill="#35211F"/>
<path d="M88.7157 23.9009V20.901C88.7157 18.9404 88.7384 18.3031 88.8458 17.3112L88.8927 16.8799L86.4846 17.282L86.536 17.5817C86.6646 18.3226 86.6646 18.9721 86.6646 20.8997V23.8997C86.6646 25.8847 86.6646 26.483 86.5345 27.5028L86.4785 27.9403L88.8867 27.537L88.8443 27.2445C88.7399 26.489 88.7157 25.8956 88.7157 23.9009Z" fill="#35211F"/>
<path d="M52.0519 18.6409L47.2871 19.205V20.4126L52.9535 20.4223L52.0519 18.6409Z" fill="#35211F"/>
<path d="M68.8086 20.8405L69.5362 22.6219L71.4345 22.4355L71.6115 20.8526L68.8086 20.8405Z" fill="#35211F"/>
<path d="M127.99 25.8141L127.507 29.07L127.701 32.3295L127.706 32.4038L127.692 32.4794L127.164 35.7157L127.503 38.8046L127.612 39.7782L126.4 39.721L122.721 39.5455L118.875 39.9854L118.736 40L118.598 39.9878L114.765 39.6028L112.703 39.7734L110.64 39.6028L106.808 39.9878L106.671 40L106.53 39.9854L102.685 39.5455L99.0062 39.721L97.7946 39.7782L97.902 38.8046L98.2423 35.7157L97.7144 32.4794L97.7008 32.4038L97.7053 32.3295L97.8974 29.07L97.4164 25.8141L97.4043 25.7337L97.4119 25.6545L97.6962 22.3779L97.4709 18.8564L97.4663 18.7797L97.4784 18.7041L98.0441 15.1924L97.5102 11.4528L97.4981 11.3663L97.5072 11.2797L97.9201 7.71195L97.6493 4.44878L97.6433 4.36226L97.6584 4.27575L98.1712 1.3233L98.2786 0.698206L99.0546 0.604381L102.571 0.182776L102.727 0.164499L102.882 0.185213L106.647 0.640936L110.415 0.0207147L110.542 0L110.672 0.00365553L112.703 0.0779846L114.733 0.00365553L114.865 0L114.99 0.0207147L118.758 0.640936L122.523 0.185213L122.678 0.164499L122.833 0.182776L126.352 0.604381L127.126 0.698206L127.235 1.3233L127.746 4.27575L127.763 4.36226L127.755 4.44878L127.485 7.71195L127.898 11.2797L127.907 11.3663L127.896 11.4528L127.361 15.1924L127.928 18.7041L127.939 18.7797L127.934 18.8564L127.71 22.3779L127.994 25.6545L128.001 25.7337L127.99 25.8141Z" fill="#392015"/>
<path d="M118.332 21.893L114.73 24.1899L112.183 20.8317L109.095 21.2301L105.836 23.8353L102.402 21.0425L100.755 22.4474L100.73 23.8792L104.846 28.083L106.957 27.9502L110.363 25.0221L113.479 27.782L115.762 28.0794L119.142 24.9929L124.284 26.0079L124.674 23.4039L124.412 22.4535L118.332 21.893Z" fill="#C6B29C"/>
<path d="M114.938 23.2565L112.934 20.6147L117.658 21.5213L114.938 23.2565Z" fill="#DB3B27"/>
<path d="M107.84 28.1102L110.354 25.9498L112.583 27.9238L107.84 28.1102Z" fill="#54B548"/>
<path d="M117.03 33.5255L109.002 33.8326L112.964 37.1019L115.748 34.6527L118.486 36.7058L121.693 33.4744L116.75 33.7717L117.03 33.5255Z" fill="#C6B29C"/>
<path d="M124.145 29.5856L105.508 29.4821L103.937 29.822L101.174 35.1847L104.331 37.5218L106.526 32.309L113.29 32.7854L113.302 32.7866L113.313 32.7854L122.399 32.5344L122.501 32.5308L122.569 32.4711L124.158 31.0868L124.228 31.0259L124.223 30.9443L124.145 29.5856Z" fill="#C6B29C"/>
<path d="M115.794 35.5448C115.726 35.6398 113.529 37.5432 113.529 37.5432L117.978 37.1825L115.794 35.5448Z" fill="#4999D3"/>
<path d="M121.355 6.26231L121.311 7.12989L120.097 8.25823L115.067 7.8549L118.203 10.0836L117.986 11.1875L117.068 11.7237L113.663 9.34514L113.634 10.2651L113.816 13.2115L112.492 13.8987L111.29 13.9475L111.452 10.2676L111.423 9.34758L108.018 11.7261L107.1 11.1851L106.884 10.0848L110.018 7.85369L105.014 8.25823L103.798 7.12989L103.754 6.26231L109.883 6.00886L107.578 3.65227L107.846 2.75423L109.543 2.45691L112.542 5.18759L115.566 2.45691L117.263 2.75057L117.531 3.65227L115.203 6.00886L121.355 6.26231Z" fill="#C6B29C"/>
<path d="M103.377 20.1927L112.627 19.2142L123.904 19.9855L124.276 16.6419L112.627 16.871L104.793 17.3145L104.721 13.7236L112.536 14.7715L123.922 13.1789L123.961 11.6728L122.818 10.4519L112.536 12.1919L102.701 10.4458L101.145 12.1249L101.125 18.2418L103.377 20.1927Z" fill="#C6B29C"/>
<path d="M105.518 14.4688L105.561 16.6426L111.489 16.3063L105.518 14.4688Z" fill="#EE8022"/>
</svg>
