<svg width="21" height="20" viewBox="0 0 21 20" fill="none" xmlns="http://www.w3.org/2000/svg">
<path d="M18.6085 15L11.9419 3.33332C11.7965 3.07682 11.5857 2.86347 11.331 2.71504C11.0762 2.56661 10.7867 2.4884 10.4919 2.4884C10.197 2.4884 9.90748 2.56661 9.65275 2.71504C9.39802 2.86347 9.18722 3.07682 9.04185 3.33332L2.37519 15C2.22825 15.2544 2.15121 15.5432 2.15186 15.8371C2.15251 16.1309 2.23083 16.4194 2.37889 16.6732C2.52695 16.927 2.73948 17.1371 2.99493 17.2823C3.25039 17.4275 3.53969 17.5026 3.83352 17.5H17.1669C17.4593 17.4997 17.7465 17.4225 17.9996 17.2761C18.2527 17.1297 18.4629 16.9192 18.6089 16.6659C18.755 16.4126 18.8319 16.1253 18.8318 15.8329C18.8317 15.5405 18.7547 15.2532 18.6085 15Z" stroke="white" stroke-width="1.66667" stroke-linecap="round" stroke-linejoin="round"/>
<path d="M10.5 7.5V10.8333" stroke="white" stroke-width="1.66667" stroke-linecap="round" stroke-linejoin="round"/>
<path d="M10.5 14.1667H10.5083" stroke="white" stroke-width="1.66667" stroke-linecap="round" stroke-linejoin="round"/>
</svg>
