<svg width="12" height="12" viewBox="0 0 12 12" fill="none" xmlns="http://www.w3.org/2000/svg">
<g clip-path="url(#clip0_134_742)">
<path d="M8 10V2C8 1.73478 7.89464 1.48043 7.70711 1.29289C7.51957 1.10536 7.26522 1 7 1H5C4.73478 1 4.48043 1.10536 4.29289 1.29289C4.10536 1.48043 4 1.73478 4 2V10" stroke="#717182" stroke-linecap="round" stroke-linejoin="round"/>
<path d="M10 3H2C1.44772 3 1 3.44772 1 4V9C1 9.55228 1.44772 10 2 10H10C10.5523 10 11 9.55228 11 9V4C11 3.44772 10.5523 3 10 3Z" stroke="#717182" stroke-linecap="round" stroke-linejoin="round"/>
</g>
<defs>
<clipPath id="clip0_134_742">
<rect width="12" height="12" fill="white"/>
</clipPath>
</defs>
</svg>
