<svg width="17" height="16" viewBox="0 0 17 16" fill="none" xmlns="http://www.w3.org/2000/svg">
<path d="M7.57861 14C7.69564 14.2027 7.86396 14.371 8.06664 14.488C8.26933 14.605 8.49924 14.6666 8.73328 14.6666C8.96732 14.6666 9.19723 14.605 9.39992 14.488C9.6026 14.371 9.77092 14.2027 9.88795 14" stroke="#643C2A" stroke-width="1.33333" stroke-linecap="round" stroke-linejoin="round"/>
<path d="M2.90807 10.2173C2.82098 10.3128 2.7635 10.4315 2.74264 10.559C2.72177 10.6865 2.73841 10.8173 2.79054 10.9356C2.84266 11.0538 2.92802 11.1544 3.03624 11.225C3.14445 11.2956 3.27085 11.3332 3.40007 11.3333H14.0667C14.1959 11.3334 14.3224 11.2959 14.4306 11.2254C14.5389 11.1549 14.6244 11.0545 14.6767 10.9363C14.7289 10.8182 14.7457 10.6874 14.725 10.5598C14.7043 10.4323 14.647 10.3135 14.5601 10.218C13.6734 9.30398 12.7334 8.33265 12.7334 5.33331C12.7334 4.27245 12.312 3.25503 11.5618 2.50489C10.8117 1.75474 9.79427 1.33331 8.7334 1.33331C7.67253 1.33331 6.65512 1.75474 5.90497 2.50489C5.15483 3.25503 4.7334 4.27245 4.7334 5.33331C4.7334 8.33265 3.79273 9.30398 2.90807 10.2173Z" stroke="#643C2A" stroke-width="1.33333" stroke-linecap="round" stroke-linejoin="round"/>
</svg>
