<svg width="21" height="20" viewBox="0 0 21 20" fill="none" xmlns="http://www.w3.org/2000/svg">
<g clip-path="url(#clip0_105_2509)">
<path d="M12.3942 13.8067C12.5663 13.8857 12.7602 13.9038 12.9439 13.8579C13.1277 13.812 13.2903 13.7049 13.405 13.5542L13.7008 13.1667C13.8561 12.9597 14.0574 12.7917 14.2888 12.676C14.5202 12.5603 14.7754 12.5 15.0342 12.5H17.5342C17.9762 12.5 18.4001 12.6756 18.7127 12.9882C19.0253 13.3007 19.2008 13.7247 19.2008 14.1667V16.6667C19.2008 17.1087 19.0253 17.5326 18.7127 17.8452C18.4001 18.1578 17.9762 18.3334 17.5342 18.3334C13.5559 18.3334 9.74062 16.753 6.92758 13.94C4.11453 11.1269 2.53418 7.3116 2.53418 3.33335C2.53418 2.89133 2.70977 2.4674 3.02233 2.15484C3.3349 1.84228 3.75882 1.66669 4.20085 1.66669H6.70085C7.14287 1.66669 7.5668 1.84228 7.87936 2.15484C8.19192 2.4674 8.36751 2.89133 8.36751 3.33335V5.83335C8.36751 6.0921 8.30727 6.34728 8.19156 6.57871C8.07585 6.81014 7.90784 7.01144 7.70085 7.16669L7.31085 7.45919C7.15786 7.576 7.05003 7.74217 7.00567 7.92948C6.96131 8.11678 6.98317 8.31367 7.06751 8.48669C8.20641 10.7999 10.0795 12.6707 12.3942 13.8067Z" stroke="#007B69" stroke-width="1.66667" stroke-linecap="round" stroke-linejoin="round"/>
</g>
<defs>
<clipPath id="clip0_105_2509">
<rect width="20" height="20" fill="white" transform="translate(0.867188)"/>
</clipPath>
</defs>
</svg>
