<svg width="33" height="32" viewBox="0 0 33 32" fill="none" xmlns="http://www.w3.org/2000/svg">
<path d="M20.4997 2.66669H8.49967C7.79243 2.66669 7.11415 2.94764 6.61406 3.44774C6.11396 3.94783 5.83301 4.62611 5.83301 5.33335V26.6667C5.83301 27.3739 6.11396 28.0522 6.61406 28.5523C7.11415 29.0524 7.79243 29.3334 8.49967 29.3334H24.4997C25.2069 29.3334 25.8852 29.0524 26.3853 28.5523C26.8854 28.0522 27.1663 27.3739 27.1663 26.6667V9.33335L20.4997 2.66669Z" stroke="#A37956" stroke-width="2.66667" stroke-linecap="round" stroke-linejoin="round"/>
<path d="M19.167 2.66669V8.00002C19.167 8.70726 19.4479 9.38554 19.948 9.88564C20.4481 10.3857 21.1264 10.6667 21.8337 10.6667H27.167" stroke="#A37956" stroke-width="2.66667" stroke-linecap="round" stroke-linejoin="round"/>
<path d="M13.8337 12H11.167" stroke="#A37956" stroke-width="2.66667" stroke-linecap="round" stroke-linejoin="round"/>
<path d="M21.8337 17.3333H11.167" stroke="#A37956" stroke-width="2.66667" stroke-linecap="round" stroke-linejoin="round"/>
<path d="M21.8337 22.6667H11.167" stroke="#A37956" stroke-width="2.66667" stroke-linecap="round" stroke-linejoin="round"/>
</svg>
