<svg width="21" height="20" viewBox="0 0 21 20" fill="none" xmlns="http://www.w3.org/2000/svg">
<path d="M2.2181 10.29C2.14865 10.1029 2.14865 9.89709 2.2181 9.71C2.89452 8.06987 4.0427 6.66753 5.51708 5.68074C6.99146 4.69396 8.72564 4.16718 10.4998 4.16718C12.2739 4.16718 14.0081 4.69396 15.4825 5.68074C16.9568 6.66753 18.105 8.06987 18.7814 9.71C18.8509 9.89709 18.8509 10.1029 18.7814 10.29C18.105 11.9301 16.9568 13.3325 15.4825 14.3192C14.0081 15.306 12.2739 15.8328 10.4998 15.8328C8.72564 15.8328 6.99146 15.306 5.51708 14.3192C4.0427 13.3325 2.89452 11.9301 2.2181 10.29Z" stroke="#4797D0" stroke-width="1.66667" stroke-linecap="round" stroke-linejoin="round"/>
<path d="M10.5 12.5C11.8807 12.5 13 11.3807 13 10C13 8.61929 11.8807 7.5 10.5 7.5C9.11929 7.5 8 8.61929 8 10C8 11.3807 9.11929 12.5 10.5 12.5Z" stroke="#4797D0" stroke-width="1.66667" stroke-linecap="round" stroke-linejoin="round"/>
</svg>
