<svg width="17" height="16" viewBox="0 0 17 16" fill="none" xmlns="http://www.w3.org/2000/svg">
<path d="M10.5335 1.33334H4.53353C4.17991 1.33334 3.84077 1.47382 3.59072 1.72387C3.34067 1.97392 3.2002 2.31305 3.2002 2.66668V13.3333C3.2002 13.687 3.34067 14.0261 3.59072 14.2762C3.84077 14.5262 4.17991 14.6667 4.53353 14.6667H12.5335C12.8872 14.6667 13.2263 14.5262 13.4763 14.2762C13.7264 14.0261 13.8669 13.687 13.8669 13.3333V4.66668L10.5335 1.33334Z" stroke="#1B8354" stroke-width="1.33333" stroke-linecap="round" stroke-linejoin="round"/>
<path d="M9.86621 1.33334V4.00001C9.86621 4.35363 10.0067 4.69277 10.2567 4.94282C10.5068 5.19287 10.8459 5.33334 11.1995 5.33334H13.8662" stroke="#1B8354" stroke-width="1.33333" stroke-linecap="round" stroke-linejoin="round"/>
<path d="M6.5332 9.99999L7.86654 11.3333L10.5332 8.66666" stroke="#1B8354" stroke-width="1.33333" stroke-linecap="round" stroke-linejoin="round"/>
</svg>
