<svg width="29" height="28" viewBox="0 0 29 28" fill="none" xmlns="http://www.w3.org/2000/svg">
<path d="M17.6673 2.33337H7.16732C6.54848 2.33337 5.95499 2.57921 5.5174 3.01679C5.07982 3.45438 4.83398 4.04787 4.83398 4.66671V23.3334C4.83398 23.9522 5.07982 24.5457 5.5174 24.9833C5.95499 25.4209 6.54848 25.6667 7.16732 25.6667H21.1673C21.7862 25.6667 22.3796 25.4209 22.8172 24.9833C23.2548 24.5457 23.5007 23.9522 23.5007 23.3334V8.16671L17.6673 2.33337Z" stroke="white" stroke-width="2.33333" stroke-linecap="round" stroke-linejoin="round"/>
<path d="M16.5 2.33337V7.00004C16.5 7.61888 16.7458 8.21237 17.1834 8.64996C17.621 9.08754 18.2145 9.33337 18.8333 9.33337H23.5" stroke="white" stroke-width="2.33333" stroke-linecap="round" stroke-linejoin="round"/>
<path d="M11.8333 10.5H9.5" stroke="white" stroke-width="2.33333" stroke-linecap="round" stroke-linejoin="round"/>
<path d="M18.8333 15.1666H9.5" stroke="white" stroke-width="2.33333" stroke-linecap="round" stroke-linejoin="round"/>
<path d="M18.8333 19.8334H9.5" stroke="white" stroke-width="2.33333" stroke-linecap="round" stroke-linejoin="round"/>
</svg>
