<svg width="28" height="28" viewBox="0 0 28 28" fill="none" xmlns="http://www.w3.org/2000/svg">
<path d="M11.9785 24.5C12.1833 24.8547 12.4779 25.1492 12.8326 25.354C13.1873 25.5588 13.5896 25.6666 13.9992 25.6666C14.4087 25.6666 14.8111 25.5588 15.1658 25.354C15.5205 25.1492 15.815 24.8547 16.0198 24.5" stroke="#0A0A0A" stroke-width="1.33333" stroke-linecap="round" stroke-linejoin="round"/>
<path d="M3.80481 17.8804C3.65241 18.0474 3.55183 18.2552 3.51531 18.4783C3.4788 18.7015 3.50792 18.9304 3.59914 19.1373C3.69036 19.3442 3.83974 19.5202 4.02911 19.6438C4.21849 19.7673 4.43969 19.8332 4.66581 19.8334H23.3325C23.5586 19.8335 23.7798 19.7678 23.9693 19.6445C24.1588 19.5212 24.3084 19.3454 24.3999 19.1386C24.4913 18.9319 24.5207 18.703 24.4845 18.4798C24.4483 18.2566 24.348 18.0488 24.1958 17.8815C22.6441 16.282 20.9991 14.5822 20.9991 9.33337C20.9991 7.47686 20.2617 5.69638 18.9489 4.38363C17.6361 3.07087 15.8557 2.33337 13.9991 2.33337C12.1426 2.33337 10.3622 3.07087 9.0494 4.38363C7.73665 5.69638 6.99915 7.47686 6.99915 9.33337C6.99915 14.5822 5.35298 16.282 3.80481 17.8804Z" stroke="#0A0A0A" stroke-width="1.33333" stroke-linecap="round" stroke-linejoin="round"/>
</svg>
