<svg width="29" height="28" viewBox="0 0 29 28" fill="none" xmlns="http://www.w3.org/2000/svg">
<path d="M14.8337 25.6667C21.277 25.6667 26.5003 20.4434 26.5003 14C26.5003 7.55672 21.277 2.33337 14.8337 2.33337C8.39034 2.33337 3.16699 7.55672 3.16699 14C3.16699 20.4434 8.39034 25.6667 14.8337 25.6667Z" stroke="white" stroke-width="2.33333" stroke-linecap="round" stroke-linejoin="round"/>
<path d="M11.4385 10.4999C11.7128 9.72021 12.2542 9.06272 12.9668 8.64392C13.6794 8.22512 14.5172 8.07203 15.3318 8.21176C16.1465 8.3515 16.8854 8.77504 17.4177 9.40738C17.95 10.0397 18.2414 10.84 18.2401 11.6666C18.2401 13.9999 14.7401 15.1666 14.7401 15.1666" stroke="white" stroke-width="2.33333" stroke-linecap="round" stroke-linejoin="round"/>
<path d="M14.834 19.8334H14.8457" stroke="white" stroke-width="2.33333" stroke-linecap="round" stroke-linejoin="round"/>
</svg>
