<svg width="21" height="20" viewBox="0 0 21 20" fill="none" xmlns="http://www.w3.org/2000/svg">
<path d="M14.667 1.66669H6.33366C4.03247 1.66669 2.16699 3.53217 2.16699 5.83335V14.1667C2.16699 16.4679 4.03247 18.3334 6.33366 18.3334H14.667C16.9682 18.3334 18.8337 16.4679 18.8337 14.1667V5.83335C18.8337 3.53217 16.9682 1.66669 14.667 1.66669Z" stroke="white" stroke-width="1.66667" stroke-linecap="round" stroke-linejoin="round"/>
<path d="M13.8337 9.47501C13.9366 10.1685 13.8181 10.8769 13.4952 11.4992C13.1723 12.1215 12.6614 12.6262 12.0351 12.9414C11.4088 13.2566 10.6991 13.3663 10.0069 13.255C9.31468 13.1436 8.67521 12.8167 8.17944 12.321C7.68367 11.8252 7.35685 11.1857 7.24546 10.4935C7.13408 9.8013 7.24379 9.09159 7.55901 8.46532C7.87423 7.83905 8.3789 7.32812 9.00123 7.00521C9.62356 6.68229 10.3319 6.56383 11.0254 6.66667C11.7328 6.77158 12.3878 7.10123 12.8935 7.60693C13.3992 8.11263 13.7288 8.76757 13.8337 9.47501Z" stroke="white" stroke-width="1.66667" stroke-linecap="round" stroke-linejoin="round"/>
<path d="M15.083 5.41669H15.0913" stroke="white" stroke-width="1.66667" stroke-linecap="round" stroke-linejoin="round"/>
</svg>
