<svg width="29" height="28" viewBox="0 0 29 28" fill="none" xmlns="http://www.w3.org/2000/svg">
<path d="M19.167 18.6667L22.667 9.33337L26.167 18.6667C25.152 19.425 23.927 19.8334 22.667 19.8334C21.407 19.8334 20.182 19.425 19.167 18.6667Z" stroke="white" stroke-width="2.33333" stroke-linecap="round" stroke-linejoin="round"/>
<path d="M2.83301 18.6667L6.33301 9.33337L9.83301 18.6667C8.81801 19.425 7.59301 19.8334 6.33301 19.8334C5.07301 19.8334 3.84801 19.425 2.83301 18.6667Z" stroke="white" stroke-width="2.33333" stroke-linecap="round" stroke-linejoin="round"/>
<path d="M8.66699 24.5H20.3337" stroke="white" stroke-width="2.33333" stroke-linecap="round" stroke-linejoin="round"/>
<path d="M14.5 3.5V24.5" stroke="white" stroke-width="2.33333" stroke-linecap="round" stroke-linejoin="round"/>
<path d="M4 8.16671H6.33333C8.66667 8.16671 12.1667 7.00004 14.5 5.83337C16.8333 7.00004 20.3333 8.16671 22.6667 8.16671H25" stroke="white" stroke-width="2.33333" stroke-linecap="round" stroke-linejoin="round"/>
</svg>
