<svg width="21" height="20" viewBox="0 0 21 20" fill="none" xmlns="http://www.w3.org/2000/svg">
<path d="M2.58309 14.1667C2.00095 11.4194 2.00095 8.58061 2.58309 5.83333C2.65959 5.55434 2.80738 5.30006 3.01193 5.09551C3.21649 4.89095 3.47077 4.74316 3.74976 4.66667C8.2193 3.92622 12.7802 3.92622 17.2498 4.66667C17.5288 4.74316 17.783 4.89095 17.9876 5.09551C18.1921 5.30006 18.3399 5.55434 18.4164 5.83333C18.9986 8.58061 18.9986 11.4194 18.4164 14.1667C18.3399 14.4457 18.1921 14.6999 17.9876 14.9045C17.783 15.1091 17.5288 15.2568 17.2498 15.3333C12.7802 16.0739 8.21929 16.0739 3.74976 15.3333C3.47077 15.2568 3.21649 15.1091 3.01193 14.9045C2.80738 14.6999 2.65959 14.4457 2.58309 14.1667Z" stroke="white" stroke-width="1.66667" stroke-linecap="round" stroke-linejoin="round"/>
<path d="M8.83301 12.5L12.9997 10L8.83301 7.5V12.5Z" stroke="white" stroke-width="1.66667" stroke-linecap="round" stroke-linejoin="round"/>
</svg>
