<svg width="21" height="20" viewBox="0 0 21 20" fill="none" xmlns="http://www.w3.org/2000/svg">
<path d="M17.2826 8.33335C17.2826 12.4942 12.6667 16.8275 11.1167 18.1659C10.9723 18.2744 10.7966 18.3331 10.6159 18.3331C10.4352 18.3331 10.2594 18.2744 10.1151 18.1659C8.56505 16.8275 3.94922 12.4942 3.94922 8.33335C3.94922 6.56524 4.6516 4.86955 5.90184 3.61931C7.15208 2.36907 8.84778 1.66669 10.6159 1.66669C12.384 1.66669 14.0797 2.36907 15.3299 3.61931C16.5802 4.86955 17.2826 6.56524 17.2826 8.33335Z" stroke="#A37956" stroke-width="1.66667" stroke-linecap="round" stroke-linejoin="round"/>
<path d="M10.6162 10.8333C11.9969 10.8333 13.1162 9.71402 13.1162 8.33331C13.1162 6.9526 11.9969 5.83331 10.6162 5.83331C9.2355 5.83331 8.11621 6.9526 8.11621 8.33331C8.11621 9.71402 9.2355 10.8333 10.6162 10.8333Z" stroke="#A37956" stroke-width="1.66667" stroke-linecap="round" stroke-linejoin="round"/>
</svg>
