<svg width="17" height="16" viewBox="0 0 17 16" fill="none" xmlns="http://www.w3.org/2000/svg">
<path d="M15.1497 11.3333C15.1497 11.687 15.0093 12.0261 14.7592 12.2761C14.5092 12.5262 14.17 12.6667 13.8164 12.6667H5.03507C4.68148 12.6667 4.3424 12.8073 4.09241 13.0573L2.62441 14.5253C2.55821 14.5915 2.47388 14.6366 2.38207 14.6548C2.29026 14.6731 2.19509 14.6637 2.10861 14.6279C2.02213 14.5921 1.94821 14.5314 1.8962 14.4536C1.84419 14.3758 1.81642 14.2843 1.81641 14.1907V3.33333C1.81641 2.97971 1.95688 2.64057 2.20693 2.39052C2.45698 2.14048 2.79612 2 3.14974 2H13.8164C14.17 2 14.5092 2.14048 14.7592 2.39052C15.0093 2.64057 15.1497 2.97971 15.1497 3.33333V11.3333Z" stroke="#4797D0" stroke-width="1.33333" stroke-linecap="round" stroke-linejoin="round"/>
</svg>
