<svg width="16" height="16" viewBox="0 0 16 16" fill="none" xmlns="http://www.w3.org/2000/svg">
<g clip-path="url(#clip0_134_948)">
<path d="M14.6673 11.3333C14.6673 11.687 14.5268 12.0261 14.2768 12.2761C14.0267 12.5262 13.6876 12.6667 13.334 12.6667H4.55265C4.19906 12.6667 3.85997 12.8073 3.60998 13.0573L2.14198 14.5253C2.07579 14.5915 1.99145 14.6366 1.89964 14.6548C1.80783 14.6731 1.71267 14.6637 1.62619 14.6279C1.53971 14.5921 1.46579 14.5314 1.41377 14.4536C1.36176 14.3758 1.334 14.2843 1.33398 14.1907V3.33333C1.33398 2.97971 1.47446 2.64057 1.72451 2.39052C1.97456 2.14048 2.3137 2 2.66732 2H13.334C13.6876 2 14.0267 2.14048 14.2768 2.39052C14.5268 2.64057 14.6673 2.97971 14.6673 3.33333V11.3333Z" stroke="#F9EFE9" stroke-width="1.33333" stroke-linecap="round" stroke-linejoin="round"/>
</g>
<defs>
<clipPath id="clip0_134_948">
<rect width="16" height="16" fill="white"/>
</clipPath>
</defs>
</svg>
