<svg width="20" height="20" viewBox="0 0 20 20" fill="none" xmlns="http://www.w3.org/2000/svg">
<path d="M8.55664 17.5C8.70293 17.7533 8.91332 17.9637 9.16668 18.11C9.42003 18.2563 9.70743 18.3333 9.99997 18.3333C10.2925 18.3333 10.5799 18.2563 10.8333 18.11C11.0866 17.9637 11.297 17.7533 11.4433 17.5" stroke="white" stroke-width="1.66667" stroke-linecap="round" stroke-linejoin="round"/>
<path d="M11.5965 1.92829C10.8444 1.67485 10.0427 1.60409 9.25788 1.72186C8.47301 1.83962 7.72746 2.14254 7.08286 2.60555C6.43826 3.06856 5.91314 3.67836 5.55092 4.38454C5.1887 5.09071 4.99979 5.87297 4.99981 6.66663C4.99981 10.4158 3.82398 11.63 2.71648 12.7725C2.60779 12.8919 2.53615 13.0404 2.51028 13.1998C2.4844 13.3592 2.50541 13.5227 2.57074 13.6704C2.63606 13.8181 2.7429 13.9436 2.87826 14.0317C3.01361 14.1198 3.17164 14.1667 3.33314 14.1666H16.6665C16.828 14.1667 16.986 14.1198 17.1214 14.0317C17.2567 13.9436 17.3636 13.8181 17.4289 13.6704C17.4942 13.5227 17.5152 13.3592 17.4893 13.1998C17.4635 13.0404 17.3918 12.8919 17.2831 12.7725C17.1116 12.5958 16.949 12.4109 16.7956 12.2183" stroke="white" stroke-width="1.66667" stroke-linecap="round" stroke-linejoin="round"/>
<path d="M15 9.16663C16.3807 9.16663 17.5 8.04734 17.5 6.66663C17.5 5.28591 16.3807 4.16663 15 4.16663C13.6193 4.16663 12.5 5.28591 12.5 6.66663C12.5 8.04734 13.6193 9.16663 15 9.16663Z" stroke="white" stroke-width="1.66667" stroke-linecap="round" stroke-linejoin="round"/>
</svg>
