<svg width="21" height="20" viewBox="0 0 21 20" fill="none" xmlns="http://www.w3.org/2000/svg">
<path d="M10.5 16.6667H10.5083" stroke="#D93A26" stroke-width="1.66667" stroke-linecap="round" stroke-linejoin="round"/>
<path d="M7.5835 13.6908C8.36237 12.9274 9.40953 12.4998 10.5002 12.4998C11.5908 12.4998 12.638 12.9274 13.4168 13.6908" stroke="#D93A26" stroke-width="1.66667" stroke-linecap="round" stroke-linejoin="round"/>
<path d="M4.6665 10.7158C5.84819 9.55738 7.34801 8.77701 8.97484 8.47412" stroke="#D93A26" stroke-width="1.66667" stroke-linecap="round" stroke-linejoin="round"/>
<path d="M16.3331 10.7159C15.8314 10.2241 15.2694 9.79763 14.6606 9.44678" stroke="#D93A26" stroke-width="1.66667" stroke-linecap="round" stroke-linejoin="round"/>
<path d="M2.1665 7.34996C3.197 6.42836 4.37325 5.68409 5.64734 5.14746" stroke="#D93A26" stroke-width="1.66667" stroke-linecap="round" stroke-linejoin="round"/>
<path d="M18.8334 7.35009C17.5624 6.21327 16.0721 5.34854 14.4544 4.80912C12.8367 4.26969 11.1257 4.06697 9.42676 4.21342" stroke="#D93A26" stroke-width="1.66667" stroke-linecap="round" stroke-linejoin="round"/>
<path d="M2.1665 1.66675L18.8332 18.3334" stroke="#D93A26" stroke-width="1.66667" stroke-linecap="round" stroke-linejoin="round"/>
</svg>
