<svg width="33" height="32" viewBox="0 0 33 32" fill="none" xmlns="http://www.w3.org/2000/svg">
<path d="M16.5 13.3333H16.5133" stroke="#007B69" stroke-width="2.66667" stroke-linecap="round" stroke-linejoin="round"/>
<path d="M16.5 18.6667H16.5133" stroke="#007B69" stroke-width="2.66667" stroke-linecap="round" stroke-linejoin="round"/>
<path d="M16.5 8H16.5133" stroke="#007B69" stroke-width="2.66667" stroke-linecap="round" stroke-linejoin="round"/>
<path d="M21.833 13.3333H21.8463" stroke="#007B69" stroke-width="2.66667" stroke-linecap="round" stroke-linejoin="round"/>
<path d="M21.833 18.6667H21.8463" stroke="#007B69" stroke-width="2.66667" stroke-linecap="round" stroke-linejoin="round"/>
<path d="M21.833 8H21.8463" stroke="#007B69" stroke-width="2.66667" stroke-linecap="round" stroke-linejoin="round"/>
<path d="M11.167 13.3333H11.1803" stroke="#007B69" stroke-width="2.66667" stroke-linecap="round" stroke-linejoin="round"/>
<path d="M11.167 18.6667H11.1803" stroke="#007B69" stroke-width="2.66667" stroke-linecap="round" stroke-linejoin="round"/>
<path d="M11.167 8H11.1803" stroke="#007B69" stroke-width="2.66667" stroke-linecap="round" stroke-linejoin="round"/>
<path d="M12.5 29.3333V25.3333C12.5 24.9797 12.6405 24.6406 12.8905 24.3905C13.1406 24.1405 13.4797 24 13.8333 24H19.1667C19.5203 24 19.8594 24.1405 20.1095 24.3905C20.3595 24.6406 20.5 24.9797 20.5 25.3333V29.3333" stroke="#007B69" stroke-width="2.66667" stroke-linecap="round" stroke-linejoin="round"/>
<path d="M24.4997 2.66667H8.49967C7.02692 2.66667 5.83301 3.86058 5.83301 5.33333V26.6667C5.83301 28.1394 7.02692 29.3333 8.49967 29.3333H24.4997C25.9724 29.3333 27.1663 28.1394 27.1663 26.6667V5.33333C27.1663 3.86058 25.9724 2.66667 24.4997 2.66667Z" stroke="#007B69" stroke-width="2.66667" stroke-linecap="round" stroke-linejoin="round"/>
</svg>
