<svg width="33" height="32" viewBox="0 0 33 32" fill="none" xmlns="http://www.w3.org/2000/svg">
<path d="M16.9004 13.3334H16.9137" stroke="#EC7F21" stroke-width="2.66667" stroke-linecap="round" stroke-linejoin="round"/>
<path d="M16.9004 18.6666H16.9137" stroke="#EC7F21" stroke-width="2.66667" stroke-linecap="round" stroke-linejoin="round"/>
<path d="M16.9004 8H16.9137" stroke="#EC7F21" stroke-width="2.66667" stroke-linecap="round" stroke-linejoin="round"/>
<path d="M22.2334 13.3334H22.2467" stroke="#EC7F21" stroke-width="2.66667" stroke-linecap="round" stroke-linejoin="round"/>
<path d="M22.2334 18.6666H22.2467" stroke="#EC7F21" stroke-width="2.66667" stroke-linecap="round" stroke-linejoin="round"/>
<path d="M22.2334 8H22.2467" stroke="#EC7F21" stroke-width="2.66667" stroke-linecap="round" stroke-linejoin="round"/>
<path d="M11.5674 13.3334H11.5807" stroke="#EC7F21" stroke-width="2.66667" stroke-linecap="round" stroke-linejoin="round"/>
<path d="M11.5674 18.6666H11.5807" stroke="#EC7F21" stroke-width="2.66667" stroke-linecap="round" stroke-linejoin="round"/>
<path d="M11.5674 8H11.5807" stroke="#EC7F21" stroke-width="2.66667" stroke-linecap="round" stroke-linejoin="round"/>
<path d="M12.9004 29.3333V25.3333C12.9004 24.9797 13.0409 24.6406 13.2909 24.3905C13.541 24.1405 13.8801 24 14.2337 24H19.5671C19.9207 24 20.2598 24.1405 20.5099 24.3905C20.7599 24.6406 20.9004 24.9797 20.9004 25.3333V29.3333" stroke="#EC7F21" stroke-width="2.66667" stroke-linecap="round" stroke-linejoin="round"/>
<path d="M24.9001 2.66663H8.90007C7.42731 2.66663 6.2334 3.86053 6.2334 5.33329V26.6666C6.2334 28.1394 7.42731 29.3333 8.90007 29.3333H24.9001C26.3728 29.3333 27.5667 28.1394 27.5667 26.6666V5.33329C27.5667 3.86053 26.3728 2.66663 24.9001 2.66663Z" stroke="#EC7F21" stroke-width="2.66667" stroke-linecap="round" stroke-linejoin="round"/>
</svg>
