<svg width="17" height="16" viewBox="0 0 17 16" fill="none" xmlns="http://www.w3.org/2000/svg">
<path d="M8.08301 6.66666H8.08967" stroke="#B42318" stroke-width="1.33333" stroke-linecap="round" stroke-linejoin="round"/>
<path d="M8.08301 9.33334H8.08967" stroke="#B42318" stroke-width="1.33333" stroke-linecap="round" stroke-linejoin="round"/>
<path d="M8.08301 4H8.08967" stroke="#B42318" stroke-width="1.33333" stroke-linecap="round" stroke-linejoin="round"/>
<path d="M10.75 6.66666H10.7567" stroke="#B42318" stroke-width="1.33333" stroke-linecap="round" stroke-linejoin="round"/>
<path d="M10.75 9.33334H10.7567" stroke="#B42318" stroke-width="1.33333" stroke-linecap="round" stroke-linejoin="round"/>
<path d="M10.75 4H10.7567" stroke="#B42318" stroke-width="1.33333" stroke-linecap="round" stroke-linejoin="round"/>
<path d="M5.41602 6.66666H5.42268" stroke="#B42318" stroke-width="1.33333" stroke-linecap="round" stroke-linejoin="round"/>
<path d="M5.41602 9.33334H5.42268" stroke="#B42318" stroke-width="1.33333" stroke-linecap="round" stroke-linejoin="round"/>
<path d="M5.41602 4H5.42268" stroke="#B42318" stroke-width="1.33333" stroke-linecap="round" stroke-linejoin="round"/>
<path d="M6.08301 14.6667V12.6667C6.08301 12.4899 6.15325 12.3203 6.27827 12.1953C6.40329 12.0702 6.57286 12 6.74967 12H9.41634C9.59315 12 9.76272 12.0702 9.88775 12.1953C10.0128 12.3203 10.083 12.4899 10.083 12.6667V14.6667" stroke="#B42318" stroke-width="1.33333" stroke-linecap="round" stroke-linejoin="round"/>
<path d="M12.0833 1.33334H4.08333C3.34695 1.33334 2.75 1.9303 2.75 2.66668V13.3333C2.75 14.0697 3.34695 14.6667 4.08333 14.6667H12.0833C12.8197 14.6667 13.4167 14.0697 13.4167 13.3333V2.66668C13.4167 1.9303 12.8197 1.33334 12.0833 1.33334Z" stroke="#B42318" stroke-width="1.33333" stroke-linecap="round" stroke-linejoin="round"/>
</svg>
