<svg width="29" height="28" viewBox="0 0 29 28" fill="none" xmlns="http://www.w3.org/2000/svg">
<path d="M14.834 11.6666H14.8457" stroke="white" stroke-width="2.33333" stroke-linecap="round" stroke-linejoin="round"/>
<path d="M14.834 16.3334H14.8457" stroke="white" stroke-width="2.33333" stroke-linecap="round" stroke-linejoin="round"/>
<path d="M14.834 7H14.8457" stroke="white" stroke-width="2.33333" stroke-linecap="round" stroke-linejoin="round"/>
<path d="M19.501 11.6666H19.5126" stroke="white" stroke-width="2.33333" stroke-linecap="round" stroke-linejoin="round"/>
<path d="M19.501 16.3334H19.5126" stroke="white" stroke-width="2.33333" stroke-linecap="round" stroke-linejoin="round"/>
<path d="M19.501 7H19.5126" stroke="white" stroke-width="2.33333" stroke-linecap="round" stroke-linejoin="round"/>
<path d="M10.167 11.6666H10.1787" stroke="white" stroke-width="2.33333" stroke-linecap="round" stroke-linejoin="round"/>
<path d="M10.167 16.3334H10.1787" stroke="white" stroke-width="2.33333" stroke-linecap="round" stroke-linejoin="round"/>
<path d="M10.167 7H10.1787" stroke="white" stroke-width="2.33333" stroke-linecap="round" stroke-linejoin="round"/>
<path d="M11.334 25.6667V22.1667C11.334 21.8572 11.4569 21.5605 11.6757 21.3417C11.8945 21.1229 12.1912 21 12.5007 21H17.1673C17.4767 21 17.7735 21.1229 17.9923 21.3417C18.2111 21.5605 18.334 21.8572 18.334 22.1667V25.6667" stroke="white" stroke-width="2.33333" stroke-linecap="round" stroke-linejoin="round"/>
<path d="M21.8343 2.33337H7.83431C6.54565 2.33337 5.50098 3.37804 5.50098 4.66671V23.3334C5.50098 24.622 6.54565 25.6667 7.83431 25.6667H21.8343C23.123 25.6667 24.1676 24.622 24.1676 23.3334V4.66671C24.1676 3.37804 23.123 2.33337 21.8343 2.33337Z" stroke="white" stroke-width="2.33333" stroke-linecap="round" stroke-linejoin="round"/>
</svg>
