<svg width="33" height="32" viewBox="0 0 33 32" fill="none" xmlns="http://www.w3.org/2000/svg">
<path d="M20.9355 17.1865L22.9555 28.5545C22.9781 28.6884 22.9593 28.826 22.9016 28.9489C22.844 29.0718 22.7501 29.1741 22.6327 29.2423C22.5153 29.3104 22.3799 29.341 22.2445 29.3301C22.1092 29.3192 21.9805 29.2673 21.8755 29.1812L17.1021 25.5985C16.8717 25.4264 16.5918 25.3334 16.3041 25.3334C16.0165 25.3334 15.7366 25.4264 15.5061 25.5985L10.7248 29.1799C10.6199 29.2658 10.4913 29.3177 10.3561 29.3286C10.221 29.3395 10.0857 29.309 9.96836 29.241C9.85101 29.1731 9.75717 29.071 9.69936 28.9483C9.64156 28.8256 9.62252 28.6883 9.64481 28.5545L11.6635 17.1865" stroke="#A37956" stroke-width="2.66667" stroke-linecap="round" stroke-linejoin="round"/>
<path d="M16.2998 18.6666C20.7181 18.6666 24.2998 15.0849 24.2998 10.6666C24.2998 6.24835 20.7181 2.66663 16.2998 2.66663C11.8815 2.66663 8.2998 6.24835 8.2998 10.6666C8.2998 15.0849 11.8815 18.6666 16.2998 18.6666Z" stroke="#A37956" stroke-width="2.66667" stroke-linecap="round" stroke-linejoin="round"/>
</svg>
