<svg width="12" height="12" viewBox="0 0 12 12" fill="none" xmlns="http://www.w3.org/2000/svg">
<path d="M7.73935 6.44501L8.49685 10.708C8.50534 10.7582 8.49829 10.8098 8.47666 10.8559C8.45504 10.902 8.41985 10.9404 8.37582 10.9659C8.33178 10.9915 8.281 11.003 8.23025 10.9989C8.17951 10.9948 8.13122 10.9753 8.09185 10.943L6.30185 9.59951C6.21544 9.53495 6.11047 9.50007 6.0026 9.50007C5.89474 9.50007 5.78977 9.53495 5.70335 9.59951L3.91035 10.9425C3.87101 10.9747 3.82278 10.9942 3.7721 10.9983C3.72142 11.0024 3.67069 10.9909 3.62668 10.9654C3.58268 10.94 3.54749 10.9017 3.52581 10.8557C3.50413 10.8097 3.497 10.7582 3.50535 10.708L4.26235 6.44501" stroke="#717182" stroke-linecap="round" stroke-linejoin="round"/>
<path d="M6 7C7.65685 7 9 5.65685 9 4C9 2.34315 7.65685 1 6 1C4.34315 1 3 2.34315 3 4C3 5.65685 4.34315 7 6 7Z" stroke="#717182" stroke-linecap="round" stroke-linejoin="round"/>
</svg>
