<svg width="17" height="16" viewBox="0 0 17 16" fill="none" xmlns="http://www.w3.org/2000/svg">
<g opacity="0.50661">
<path d="M10.4663 2C10.818 2.00501 11.1535 2.14878 11.3997 2.4L13.933 4.93333C14.1842 5.17951 14.328 5.51497 14.333 5.86667V12.6667C14.333 13.0203 14.1925 13.3594 13.9425 13.6095C13.6924 13.8595 13.3533 14 12.9997 14H3.66634C3.31272 14 2.97358 13.8595 2.72353 13.6095C2.47348 13.3594 2.33301 13.0203 2.33301 12.6667V3.33333C2.33301 2.97971 2.47348 2.64057 2.72353 2.39052C2.97358 2.14048 3.31272 2 3.66634 2H10.4663Z" stroke="white" stroke-width="1.33333" stroke-linecap="round" stroke-linejoin="round"/>
<path d="M11.6667 14V9.33332C11.6667 9.15651 11.5964 8.98694 11.4714 8.86192C11.3464 8.73689 11.1768 8.66666 11 8.66666H5.66667C5.48986 8.66666 5.32029 8.73689 5.19526 8.86192C5.07024 8.98694 5 9.15651 5 9.33332V14" stroke="white" stroke-width="1.33333" stroke-linecap="round" stroke-linejoin="round"/>
<path d="M5 2V4.66667C5 4.84348 5.07024 5.01305 5.19526 5.13807C5.32029 5.2631 5.48986 5.33333 5.66667 5.33333H10.3333" stroke="white" stroke-width="1.33333" stroke-linecap="round" stroke-linejoin="round"/>
</g>
</svg>
