<svg width="17" height="16" viewBox="0 0 17 16" fill="none" xmlns="http://www.w3.org/2000/svg">
<path d="M10.1902 14.4573C10.2155 14.5205 10.2596 14.5743 10.3164 14.6117C10.3732 14.6491 10.4401 14.6682 10.5081 14.6664C10.5761 14.6647 10.6419 14.6422 10.6968 14.6019C10.7516 14.5617 10.7928 14.5057 10.8149 14.4413L15.1482 1.77466C15.1695 1.71559 15.1736 1.65167 15.16 1.59037C15.1463 1.52907 15.1154 1.47293 15.071 1.42852C15.0266 1.3841 14.9705 1.35326 14.9092 1.33959C14.8479 1.32592 14.7839 1.32999 14.7249 1.35133L2.05821 5.68466C1.99388 5.70673 1.93783 5.74794 1.89759 5.80278C1.85736 5.85761 1.83486 5.92344 1.83312 5.99144C1.83138 6.05943 1.85047 6.12632 1.88785 6.18315C1.92523 6.23997 1.97909 6.284 2.04221 6.30933L7.32888 8.42933C7.496 8.49624 7.64785 8.5963 7.77526 8.72348C7.90266 8.85066 8.003 9.00233 8.07021 9.16933L10.1902 14.4573Z" stroke="white" stroke-width="1.33333" stroke-linecap="round" stroke-linejoin="round"/>
<path d="M15.0697 1.43127L7.77637 8.72394" stroke="white" stroke-width="1.33333" stroke-linecap="round" stroke-linejoin="round"/>
</svg>
