<svg width="17" height="16" viewBox="0 0 17 16" fill="none" xmlns="http://www.w3.org/2000/svg">
<g opacity="0.50661">
<path d="M10.0906 14.4573C10.1159 14.5205 10.16 14.5743 10.2168 14.6117C10.2736 14.6491 10.3405 14.6682 10.4085 14.6664C10.4765 14.6647 10.5423 14.6422 10.5972 14.6019C10.652 14.5617 10.6932 14.5057 10.7153 14.4413L15.0486 1.77466C15.0699 1.71559 15.074 1.65167 15.0603 1.59037C15.0467 1.52907 15.0158 1.47293 14.9714 1.42852C14.927 1.3841 14.8709 1.35326 14.8096 1.33959C14.7483 1.32592 14.6843 1.32999 14.6253 1.35133L1.9586 5.68466C1.89427 5.70673 1.83822 5.74794 1.79798 5.80278C1.75775 5.85761 1.73525 5.92344 1.73351 5.99144C1.73177 6.05943 1.75087 6.12632 1.78824 6.18315C1.82562 6.23997 1.87948 6.284 1.9426 6.30933L7.22927 8.42933C7.39639 8.49624 7.54824 8.5963 7.67565 8.72348C7.80305 8.85066 7.90339 9.00233 7.9706 9.16933L10.0906 14.4573Z" stroke="#643C2A" stroke-width="1.33333" stroke-linecap="round" stroke-linejoin="round"/>
<path d="M14.9701 1.4313L7.67676 8.72397" stroke="#643C2A" stroke-width="1.33333" stroke-linecap="round" stroke-linejoin="round"/>
</g>
</svg>
