<svg width="21" height="20" viewBox="0 0 21 20" fill="none" xmlns="http://www.w3.org/2000/svg">
<path d="M8.55893 3.44663C8.60485 2.96358 8.82921 2.515 9.18818 2.18853C9.54716 1.86206 10.015 1.68115 10.5002 1.68115C10.9854 1.68115 11.4532 1.86206 11.8122 2.18853C12.1712 2.515 12.3955 2.96358 12.4414 3.44663C12.469 3.75868 12.5714 4.05948 12.7399 4.32358C12.9084 4.58768 13.138 4.8073 13.4093 4.96386C13.6807 5.12042 13.9857 5.2093 14.2987 5.22298C14.6116 5.23666 14.9233 5.17474 15.2073 5.04246C15.6482 4.84228 16.1478 4.81331 16.6089 4.9612C17.07 5.10909 17.4596 5.42326 17.7019 5.84255C17.9441 6.26185 18.0217 6.75627 17.9195 7.22961C17.8173 7.70294 17.5426 8.12131 17.1489 8.4033C16.8926 8.58317 16.6833 8.82214 16.5389 9.09998C16.3944 9.37783 16.319 9.68639 16.319 9.99955C16.319 10.3127 16.3944 10.6213 16.5389 10.8991C16.6833 11.177 16.8926 11.4159 17.1489 11.5958C17.5426 11.8778 17.8173 12.2962 17.9195 12.7695C18.0217 13.2428 17.9441 13.7372 17.7019 14.1565C17.4596 14.5758 17.07 14.89 16.6089 15.0379C16.1478 15.1858 15.6482 15.1568 15.2073 14.9566C14.9233 14.8244 14.6116 14.7624 14.2987 14.7761C13.9857 14.7898 13.6807 14.8787 13.4093 15.0352C13.138 15.1918 12.9084 15.4114 12.7399 15.6755C12.5714 15.9396 12.469 16.2404 12.4414 16.5525C12.3955 17.0355 12.1712 17.4841 11.8122 17.8106C11.4532 18.137 10.9854 18.3179 10.5002 18.3179C10.015 18.3179 9.54716 18.137 9.18818 17.8106C8.82921 17.4841 8.60485 17.0355 8.55893 16.5525C8.53138 16.2403 8.42901 15.9394 8.26049 15.6752C8.09196 15.411 7.86224 15.1913 7.59079 15.0347C7.31934 14.8782 7.01416 14.7893 6.70108 14.7757C6.38801 14.7621 6.07627 14.8242 5.79227 14.9566C5.35134 15.1568 4.8517 15.1858 4.3906 15.0379C3.92949 14.89 3.53991 14.5758 3.29767 14.1565C3.05543 13.7372 2.97786 13.2428 3.08007 12.7695C3.18227 12.2962 3.45693 11.8778 3.8506 11.5958C4.10695 11.4159 4.31621 11.177 4.46067 10.8991C4.60514 10.6213 4.68056 10.3127 4.68056 9.99955C4.68056 9.68639 4.60514 9.37783 4.46067 9.09998C4.31621 8.82214 4.10695 8.58317 3.8506 8.4033C3.45749 8.12117 3.18331 7.70296 3.08135 7.22995C2.97939 6.75694 3.05694 6.26291 3.29892 5.84389C3.5409 5.42487 3.93003 5.11078 4.39067 4.96266C4.85132 4.81455 5.35059 4.84299 5.79143 5.04246C6.0754 5.17474 6.38705 5.23666 6.70002 5.22298C7.01298 5.2093 7.31804 5.12042 7.58938 4.96386C7.86072 4.8073 8.09034 4.58768 8.25882 4.32358C8.4273 4.05948 8.52967 3.75868 8.55727 3.44663" stroke="#ED7F21" stroke-width="1.66667" stroke-linecap="round" stroke-linejoin="round"/>
<path d="M10.5 12.5C11.8807 12.5 13 11.3807 13 10C13 8.61929 11.8807 7.5 10.5 7.5C9.11929 7.5 8 8.61929 8 10C8 11.3807 9.11929 12.5 10.5 12.5Z" stroke="#ED7F21" stroke-width="1.66667" stroke-linecap="round" stroke-linejoin="round"/>
</svg>
