<svg width="20" height="20" viewBox="0 0 20 20" fill="none" xmlns="http://www.w3.org/2000/svg">
<path d="M16.6668 10.8333C16.6668 15 13.7502 17.0833 10.2835 18.2916C10.102 18.3532 9.90478 18.3502 9.72516 18.2833C6.25016 17.0833 3.3335 15 3.3335 10.8333V4.99997C3.3335 4.77895 3.42129 4.56699 3.57757 4.41071C3.73385 4.25443 3.94582 4.16663 4.16683 4.16663C5.8335 4.16663 7.91683 3.16663 9.36683 1.89997C9.54337 1.74913 9.76796 1.66626 10.0002 1.66626C10.2324 1.66626 10.457 1.74913 10.6335 1.89997C12.0918 3.17497 14.1668 4.16663 15.8335 4.16663C16.0545 4.16663 16.2665 4.25443 16.4228 4.41071C16.579 4.56699 16.6668 4.77895 16.6668 4.99997V10.8333Z" stroke="white" stroke-width="1.66667" stroke-linecap="round" stroke-linejoin="round"/>
<path d="M10 6.66663V9.99996" stroke="white" stroke-width="1.66667" stroke-linecap="round" stroke-linejoin="round"/>
<path d="M10 13.3334H10.0083" stroke="white" stroke-width="1.66667" stroke-linecap="round" stroke-linejoin="round"/>
</svg>
