<svg width="34" height="30" viewBox="0 0 34 30" fill="none" xmlns="http://www.w3.org/2000/svg">
<path d="M31.7492 3.52766H2.25132C1.32268 3.52766 0.612549 2.81752 0.612549 1.88889C0.612549 0.960254 1.32268 0.250122 2.25132 0.250122H31.7492C32.6778 0.250122 33.3879 0.960254 33.3879 1.88889C33.3879 2.81752 32.6778 3.52766 31.7492 3.52766Z" fill="#392015"/>
<path d="M21.9163 12.2694H2.25107C1.32244 12.2694 0.612305 11.5592 0.612305 10.6306C0.612305 9.70195 1.32244 8.99182 2.25107 8.99182H21.9163C22.8449 8.99182 23.5551 9.70195 23.5551 10.6306C23.5551 11.5592 22.8449 12.2694 21.9163 12.2694Z" fill="#392015"/>
<path d="M31.7489 21.0069H2.25107C1.32244 21.0069 0.612305 20.2968 0.612305 19.3681C0.612305 18.4395 1.32244 17.7294 2.25107 17.7294H31.7489C32.6775 17.7294 33.3877 18.4395 33.3877 19.3681C33.3877 20.2968 32.6775 21.0069 31.7489 21.0069Z" fill="#392015"/>
<path d="M21.9163 29.75H2.25107C1.32244 29.75 0.612305 29.0398 0.612305 28.1112C0.612305 27.1825 1.32244 26.4724 2.25107 26.4724H21.9163C22.8449 26.4724 23.5551 27.1825 23.5551 28.1112C23.5551 29.0398 22.8449 29.75 21.9163 29.75Z" fill="#392015"/>
</svg>
