<svg width="21" height="20" viewBox="0 0 21 20" fill="none" xmlns="http://www.w3.org/2000/svg">
<path d="M13.3973 10.7417L14.6598 17.8467C14.6739 17.9303 14.6622 18.0163 14.6261 18.0931C14.5901 18.1699 14.5315 18.2339 14.4581 18.2765C14.3847 18.3191 14.3 18.3382 14.2155 18.3314C14.1309 18.3246 14.0504 18.2921 13.9848 18.2383L11.0015 15.9992C10.8574 15.8916 10.6825 15.8334 10.5027 15.8334C10.3229 15.8334 10.148 15.8916 10.004 15.9992L7.01563 18.2375C6.95006 18.2912 6.86968 18.3236 6.78521 18.3305C6.70073 18.3373 6.61619 18.3182 6.54285 18.2757C6.4695 18.2333 6.41086 18.1694 6.37473 18.0928C6.33859 18.0161 6.3267 17.9303 6.34063 17.8467L7.60229 10.7417" stroke="#B42318" stroke-width="1.66667" stroke-linecap="round" stroke-linejoin="round"/>
<path d="M10.5 11.6667C13.2614 11.6667 15.5 9.42808 15.5 6.66666C15.5 3.90523 13.2614 1.66666 10.5 1.66666C7.73858 1.66666 5.5 3.90523 5.5 6.66666C5.5 9.42808 7.73858 11.6667 10.5 11.6667Z" stroke="#B42318" stroke-width="1.66667" stroke-linecap="round" stroke-linejoin="round"/>
</svg>
