<svg width="21" height="20" viewBox="0 0 21 20" fill="none" xmlns="http://www.w3.org/2000/svg">
<path d="M13.833 6.66669C15.1591 6.66669 16.4309 7.19347 17.3685 8.13115C18.3062 9.06884 18.833 10.3406 18.833 11.6667V17.5H15.4997V11.6667C15.4997 11.2247 15.3241 10.8007 15.0115 10.4882C14.699 10.1756 14.275 10 13.833 10C13.391 10 12.9671 10.1756 12.6545 10.4882C12.3419 10.8007 12.1663 11.2247 12.1663 11.6667V17.5H8.83301V11.6667C8.83301 10.3406 9.35979 9.06884 10.2975 8.13115C11.2352 7.19347 12.5069 6.66669 13.833 6.66669Z" stroke="white" stroke-width="1.66667" stroke-linecap="round" stroke-linejoin="round"/>
<path d="M5.50033 7.5H2.16699V17.5H5.50033V7.5Z" stroke="white" stroke-width="1.66667" stroke-linecap="round" stroke-linejoin="round"/>
<path d="M3.83366 5.00002C4.75413 5.00002 5.50033 4.25383 5.50033 3.33335C5.50033 2.41288 4.75413 1.66669 3.83366 1.66669C2.91318 1.66669 2.16699 2.41288 2.16699 3.33335C2.16699 4.25383 2.91318 5.00002 3.83366 5.00002Z" stroke="white" stroke-width="1.66667" stroke-linecap="round" stroke-linejoin="round"/>
</svg>
