<svg width="33" height="32" viewBox="0 0 33 32" fill="none" xmlns="http://www.w3.org/2000/svg">
<path d="M21.5006 28V25.3333C21.5006 23.9188 20.9387 22.5623 19.9386 21.5621C18.9384 20.5619 17.5818 20 16.1673 20H8.16732C6.75283 20 5.39628 20.5619 4.39608 21.5621C3.39589 22.5623 2.83398 23.9188 2.83398 25.3333V28" stroke="#007B69" stroke-width="2.66667" stroke-linecap="round" stroke-linejoin="round"/>
<path d="M21.5 4.17065C22.6437 4.46715 23.6565 5.13501 24.3796 6.0694C25.1026 7.0038 25.4949 8.15184 25.4949 9.33332C25.4949 10.5148 25.1026 11.6628 24.3796 12.5972C23.6565 13.5316 22.6437 14.1995 21.5 14.496" stroke="#007B69" stroke-width="2.66667" stroke-linecap="round" stroke-linejoin="round"/>
<path d="M29.5 28V25.3333C29.4991 24.1516 29.1058 23.0037 28.3818 22.0698C27.6578 21.1358 26.6442 20.4688 25.5 20.1733" stroke="#007B69" stroke-width="2.66667" stroke-linecap="round" stroke-linejoin="round"/>
<path d="M12.1673 14.6667C15.1128 14.6667 17.5007 12.2789 17.5007 9.33333C17.5007 6.38781 15.1128 4 12.1673 4C9.2218 4 6.83398 6.38781 6.83398 9.33333C6.83398 12.2789 9.2218 14.6667 12.1673 14.6667Z" stroke="#007B69" stroke-width="2.66667" stroke-linecap="round" stroke-linejoin="round"/>
</svg>
