<svg width="29" height="28" viewBox="0 0 29 28" fill="none" xmlns="http://www.w3.org/2000/svg">
<path d="M19.1663 24.5V22.1667C19.1663 20.929 18.6747 19.742 17.7995 18.8668C16.9243 17.9917 15.7374 17.5 14.4997 17.5H7.49967C6.262 17.5 5.07501 17.9917 4.19984 18.8668C3.32467 19.742 2.83301 20.929 2.83301 22.1667V24.5" stroke="white" stroke-width="2.33333" stroke-linecap="round" stroke-linejoin="round"/>
<path d="M19.167 3.64941C20.1677 3.90885 21.054 4.49322 21.6866 5.31082C22.3193 6.12842 22.6626 7.13295 22.6626 8.16675C22.6626 9.20054 22.3193 10.2051 21.6866 11.0227C21.054 11.8403 20.1677 12.4246 19.167 12.6841" stroke="white" stroke-width="2.33333" stroke-linecap="round" stroke-linejoin="round"/>
<path d="M26.167 24.4999V22.1666C26.1662 21.1326 25.8221 20.1282 25.1886 19.311C24.5551 18.4938 23.6681 17.9101 22.667 17.6516" stroke="white" stroke-width="2.33333" stroke-linecap="round" stroke-linejoin="round"/>
<path d="M10.9997 12.8333C13.577 12.8333 15.6663 10.744 15.6663 8.16667C15.6663 5.58934 13.577 3.5 10.9997 3.5C8.42235 3.5 6.33301 5.58934 6.33301 8.16667C6.33301 10.744 8.42235 12.8333 10.9997 12.8333Z" stroke="white" stroke-width="2.33333" stroke-linecap="round" stroke-linejoin="round"/>
</svg>
