<svg width="29" height="28" viewBox="0 0 29 28" fill="none" xmlns="http://www.w3.org/2000/svg">
<path d="M23.5007 15.1666C23.5007 21 19.4173 23.9166 14.564 25.6083C14.3098 25.6944 14.0338 25.6903 13.7823 25.5966C8.91732 23.9166 4.83398 21 4.83398 15.1666V6.99995C4.83398 6.69054 4.9569 6.39379 5.17569 6.175C5.39449 5.9562 5.69123 5.83329 6.00065 5.83329C8.33398 5.83329 11.2507 4.43329 13.2807 2.65995C13.5278 2.44879 13.8422 2.33276 14.1673 2.33276C14.4924 2.33276 14.8068 2.44879 15.054 2.65995C17.0957 4.44495 20.0007 5.83329 22.334 5.83329C22.6434 5.83329 22.9402 5.9562 23.1589 6.175C23.3777 6.39379 23.5007 6.69054 23.5007 6.99995V15.1666Z" stroke="white" stroke-width="2.33333" stroke-linecap="round" stroke-linejoin="round"/>
</svg>
